<?xml version="1.0" encoding="iso-8859-1"?>
<!-- Uploaded to: SVG Repo, www.svgrepo.com, Generator: SVG Repo Mixer Tools -->
<svg version="1.1" id="Layer_1" xmlns="http://www.w3.org/2000/svg" xmlns:xlink="http://www.w3.org/1999/xlink" 
	 viewBox="0 0 512 512" xml:space="preserve">
<circle style="fill:#394CE2;" cx="256" cy="255.996" r="255.996"/>
<path style="fill:#1B2DDD;" d="M511.005,278.542L318.063,85.6l-62.058-50.592L193.944,85.6v29.839l8.83,6.247l-25.432,295.156
	H145.35v34.811l54.055,54.055c18.208,4.11,37.148,6.291,56.598,6.291C389.791,512,499.588,409.366,511.005,278.542z"/>
<polygon style="fill:#FFFFFF;" points="307.423,100.696 204.583,100.696 177.013,420.668 334.994,420.668 "/>
<polygon style="fill:#E1E1E3;" points="334.994,420.668 307.423,100.696 256,100.696 256,420.668 "/>
<polygon style="fill:#FFA91F;" points="256.005,35.007 193.944,85.6 193.944,115.439 318.062,115.439 318.062,85.6 "/>
<polygon style="fill:#FF8800;" points="318.062,115.439 318.062,85.6 256.005,35.007 256,35.011 256,115.439 "/>
<polygon style="fill:#FF3C62;" points="195.604,204.913 185.993,316.452 326.014,316.452 316.403,204.913 "/>
<path style="fill:#3C3B41;" d="M273.321,158.73c0-9.524-7.793-17.317-17.317-17.317s-17.317,7.793-17.317,17.317v20.781h34.634
	V158.73z"/>
<path style="fill:#29292B;" d="M273.32,158.73c0-9.524-7.793-17.317-17.317-17.317c-0.001,0-0.002,0-0.003,0v38.097h17.32V158.73z"
	/>
<rect x="145.347" y="416.846" style="fill:#FFA91F;" width="221.306" height="34.816"/>
<rect x="256" y="416.846" style="fill:#FF8800;" width="110.653" height="34.816"/>
<polygon style="fill:#FF0335;" points="316.403,204.913 256,204.913 256,316.452 326.014,316.452 "/>
</svg>